<svg id="visual" viewBox="0 0 960 540" width="960" height="540" xmlns="http://www.w3.org/2000/svg" xmlns:xlink="http://www.w3.org/1999/xlink" version="1.1"><rect x="0" y="0" width="960" height="540" fill="#ffffff"></rect><path d="M0 465L22.8 468.2C45.7 471.3 91.3 477.7 137 477.8C182.7 478 228.3 472 274 472.5C319.7 473 365.3 480 411.2 477.7C457 475.3 503 463.7 548.8 463.3C594.7 463 640.3 474 686 473.7C731.7 473.3 777.3 461.7 823 459.2C868.7 456.7 914.3 463.3 937.2 466.7L960 470L960 541L937.2 541C914.3 541 868.7 541 823 541C777.3 541 731.7 541 686 541C640.3 541 594.7 541 548.8 541C503 541 457 541 411.2 541C365.3 541 319.7 541 274 541C228.3 541 182.7 541 137 541C91.3 541 45.7 541 22.8 541L0 541Z" fill="#bbdaeb"></path><path d="M0 490L22.8 491C45.7 492 91.3 494 137 491.2C182.7 488.3 228.3 480.7 274 480.3C319.7 480 365.3 487 411.2 490.2C457 493.3 503 492.7 548.8 493.2C594.7 493.7 640.3 495.3 686 491.7C731.7 488 777.3 479 823 476.7C868.7 474.3 914.3 478.7 937.2 480.8L960 483L960 541L937.2 541C914.3 541 868.7 541 823 541C777.3 541 731.7 541 686 541C640.3 541 594.7 541 548.8 541C503 541 457 541 411.2 541C365.3 541 319.7 541 274 541C228.3 541 182.7 541 137 541C91.3 541 45.7 541 22.8 541L0 541Z" fill="#94cbec"></path><path d="M0 493L22.8 496C45.7 499 91.3 505 137 505.5C182.7 506 228.3 501 274 499.8C319.7 498.7 365.3 501.3 411.2 503.5C457 505.7 503 507.3 548.8 506.5C594.7 505.7 640.3 502.3 686 499.3C731.7 496.3 777.3 493.7 823 491.8C868.7 490 914.3 489 937.2 488.5L960 488L960 541L937.2 541C914.3 541 868.7 541 823 541C777.3 541 731.7 541 686 541C640.3 541 594.7 541 548.8 541C503 541 457 541 411.2 541C365.3 541 319.7 541 274 541C228.3 541 182.7 541 137 541C91.3 541 45.7 541 22.8 541L0 541Z" fill="#6abcee"></path><path d="M0 523L22.8 522.7C45.7 522.3 91.3 521.7 137 521.3C182.7 521 228.3 521 274 521.5C319.7 522 365.3 523 411.2 523.5C457 524 503 524 548.8 523C594.7 522 640.3 520 686 517.7C731.7 515.3 777.3 512.7 823 511.8C868.7 511 914.3 512 937.2 512.5L960 513L960 541L937.2 541C914.3 541 868.7 541 823 541C777.3 541 731.7 541 686 541C640.3 541 594.7 541 548.8 541C503 541 457 541 411.2 541C365.3 541 319.7 541 274 541C228.3 541 182.7 541 137 541C91.3 541 45.7 541 22.8 541L0 541Z" fill="#2eacf0"></path></svg>